{
    "asset" : {
        "generator" : "Khronos glTF Blender I/O v1.8.19",
        "version" : "2.0"
    },
    "scene" : 0,
    "scenes" : [
        {
            "name" : "Scene",
            "nodes" : [
                0
            ]
        }
    ],
    "nodes" : [
        {
            "mesh" : 0,
            "name" : "body"
        }
    ],
    "materials" : [
        {
            "name" : "paintWhite",
            "pbrMetallicRoughness" : {
                "baseColorFactor" : [
                    0.7835379242897034,
                    0.7991028428077698,
                    0.9301108717918396,
                    1
                ]
            }
        },
        {
            "name" : "paintRed",
            "pbrMetallicRoughness" : {
                "baseColorFactor" : [
                    1,
                    0.042311400175094604,
                    0.10662186145782471,
                    1
                ]
            }
        },
        {
            "name" : "plastic",
            "pbrMetallicRoughness" : {
                "baseColorFactor" : [
                    0.11697065085172653,
                    0.11697065085172653,
                    0.11697065085172653,
                    1
                ]
            }
        },
        {
            "name" : "carTire",
            "pbrMetallicRoughness" : {
                "baseColorFactor" : [
                    0.046665072441101074,
                    0.046665072441101074,
                    0.046665072441101074,
                    1
                ]
            }
        },
        {
            "name" : "_defaultMat",
            "pbrMetallicRoughness" : {}
        },
        {
            "name" : "lightFront",
            "pbrMetallicRoughness" : {
                "baseColorFactor" : [
                    0.9130986928939819,
                    0.48514997959136963,
                    0.05448026955127716,
                    1
                ]
            }
        },
        {
            "name" : "window",
            "pbrMetallicRoughness" : {
                "baseColorFactor" : [
                    0.8631572723388672,
                    0.8631572723388672,
                    0.8631572723388672,
                    1
                ]
            }
        },
        {
            "name" : "lightBlue",
            "pbrMetallicRoughness" : {
                "baseColorFactor" : [
                    0.10461647808551788,
                    0.4396572411060333,
                    1,
                    1
                ]
            }
        }
    ],
    "meshes" : [
        {
            "name" : "Mesh body",
            "primitives" : [
                {
                    "attributes" : {
                        "POSITION" : 0,
                        "NORMAL" : 1,
                        "TEXCOORD_0" : 2
                    },
                    "indices" : 3,
                    "material" : 0
                },
                {
                    "attributes" : {
                        "POSITION" : 4,
                        "NORMAL" : 5,
                        "TEXCOORD_0" : 6
                    },
                    "indices" : 7,
                    "material" : 1
                },
                {
                    "attributes" : {
                        "POSITION" : 8,
                        "NORMAL" : 9,
                        "TEXCOORD_0" : 10
                    },
                    "indices" : 11,
                    "material" : 2
                },
                {
                    "attributes" : {
                        "POSITION" : 12,
                        "NORMAL" : 13,
                        "TEXCOORD_0" : 14
                    },
                    "indices" : 15,
                    "material" : 3
                },
                {
                    "attributes" : {
                        "POSITION" : 16,
                        "NORMAL" : 17,
                        "TEXCOORD_0" : 18
                    },
                    "indices" : 19,
                    "material" : 4
                },
                {
                    "attributes" : {
                        "POSITION" : 20,
                        "NORMAL" : 21,
                        "TEXCOORD_0" : 22
                    },
                    "indices" : 23,
                    "material" : 5
                },
                {
                    "attributes" : {
                        "POSITION" : 24,
                        "NORMAL" : 25,
                        "TEXCOORD_0" : 26
                    },
                    "indices" : 27,
                    "material" : 6
                },
                {
                    "attributes" : {
                        "POSITION" : 28,
                        "NORMAL" : 29,
                        "TEXCOORD_0" : 30
                    },
                    "indices" : 31,
                    "material" : 7
                }
            ]
        }
    ],
    "accessors" : [
        {
            "bufferView" : 0,
            "componentType" : 5126,
            "count" : 441,
            "max" : [
                0.75,
                1.600000023841858,
                1.6172059774398804
            ],
            "min" : [
                -0.75,
                0.20251482725143433,
                -1.5
            ],
            "type" : "VEC3"
        },
        {
            "bufferView" : 1,
            "componentType" : 5126,
            "count" : 441,
            "type" : "VEC3"
        },
        {
            "bufferView" : 2,
            "componentType" : 5126,
            "count" : 441,
            "type" : "VEC2"
        },
        {
            "bufferView" : 3,
            "componentType" : 5123,
            "count" : 654,
            "type" : "SCALAR"
        },
        {
            "bufferView" : 4,
            "componentType" : 5126,
            "count" : 285,
            "max" : [
                0.6499999761581421,
                1.2999999523162842,
                1.6172059774398804
            ],
            "min" : [
                -0.6499999761581421,
                0.10000000149011612,
                -1.5
            ],
            "type" : "VEC3"
        },
        {
            "bufferView" : 5,
            "componentType" : 5126,
            "count" : 285,
            "type" : "VEC3"
        },
        {
            "bufferView" : 6,
            "componentType" : 5126,
            "count" : 285,
            "type" : "VEC2"
        },
        {
            "bufferView" : 7,
            "componentType" : 5123,
            "count" : 372,
            "type" : "SCALAR"
        },
        {
            "bufferView" : 8,
            "componentType" : 5126,
            "count" : 1428,
            "max" : [
                0.75,
                1.5,
                1.600000023841858
            ],
            "min" : [
                -0.75,
                -6.136247177154948e-15,
                -1.5499999523162842
            ],
            "type" : "VEC3"
        },
        {
            "bufferView" : 9,
            "componentType" : 5126,
            "count" : 1428,
            "type" : "VEC3"
        },
        {
            "bufferView" : 10,
            "componentType" : 5126,
            "count" : 1428,
            "type" : "VEC2"
        },
        {
            "bufferView" : 11,
            "componentType" : 5123,
            "count" : 1956,
            "type" : "SCALAR"
        },
        {
            "bufferView" : 12,
            "componentType" : 5126,
            "count" : 1928,
            "max" : [
                0.75,
                0.4000000059604645,
                1.209999918937683
            ],
            "min" : [
                -0.75,
                -0.23763802647590637,
                -1.309999942779541
            ],
            "type" : "VEC3"
        },
        {
            "bufferView" : 13,
            "componentType" : 5126,
            "count" : 1928,
            "type" : "VEC3"
        },
        {
            "bufferView" : 14,
            "componentType" : 5126,
            "count" : 1928,
            "type" : "VEC2"
        },
        {
            "bufferView" : 15,
            "componentType" : 5123,
            "count" : 2622,
            "type" : "SCALAR"
        },
        {
            "bufferView" : 16,
            "componentType" : 5126,
            "count" : 1742,
            "max" : [
                0.75,
                0.699999988079071,
                1.0564980506896973
            ],
            "min" : [
                -0.75,
                -0.09196586161851883,
                -1.1634160280227661
            ],
            "type" : "VEC3"
        },
        {
            "bufferView" : 17,
            "componentType" : 5126,
            "count" : 1742,
            "type" : "VEC3"
        },
        {
            "bufferView" : 18,
            "componentType" : 5126,
            "count" : 1742,
            "type" : "VEC2"
        },
        {
            "bufferView" : 19,
            "componentType" : 5123,
            "count" : 1746,
            "type" : "SCALAR"
        },
        {
            "bufferView" : 20,
            "componentType" : 5126,
            "count" : 20,
            "max" : [
                0.550000011920929,
                0.5249999761581421,
                -1.399999976158142
            ],
            "min" : [
                -0.550000011920929,
                0.4000000059604645,
                -1.5
            ],
            "type" : "VEC3"
        },
        {
            "bufferView" : 21,
            "componentType" : 5126,
            "count" : 20,
            "type" : "VEC3"
        },
        {
            "bufferView" : 22,
            "componentType" : 5126,
            "count" : 20,
            "type" : "VEC2"
        },
        {
            "bufferView" : 23,
            "componentType" : 5123,
            "count" : 24,
            "type" : "SCALAR"
        },
        {
            "bufferView" : 24,
            "componentType" : 5126,
            "count" : 84,
            "max" : [
                0.6499999761581421,
                1.202514886856079,
                1.6172059774398804
            ],
            "min" : [
                -0.6499999761581421,
                0.6000000238418579,
                -1.100000023841858
            ],
            "type" : "VEC3"
        },
        {
            "bufferView" : 25,
            "componentType" : 5126,
            "count" : 84,
            "type" : "VEC3"
        },
        {
            "bufferView" : 26,
            "componentType" : 5126,
            "count" : 84,
            "type" : "VEC2"
        },
        {
            "bufferView" : 27,
            "componentType" : 5123,
            "count" : 90,
            "type" : "SCALAR"
        },
        {
            "bufferView" : 28,
            "componentType" : 5126,
            "count" : 88,
            "max" : [
                0.4000000059604645,
                1.5,
                1.399999976158142
            ],
            "min" : [
                -0.4000000059604645,
                1.100000023841858,
                -0.800000011920929
            ],
            "type" : "VEC3"
        },
        {
            "bufferView" : 29,
            "componentType" : 5126,
            "count" : 88,
            "type" : "VEC3"
        },
        {
            "bufferView" : 30,
            "componentType" : 5126,
            "count" : 88,
            "type" : "VEC2"
        },
        {
            "bufferView" : 31,
            "componentType" : 5123,
            "count" : 120,
            "type" : "SCALAR"
        }
    ],
    "bufferViews" : [
        {
            "buffer" : 0,
            "byteLength" : 5292,
            "byteOffset" : 0
        },
        {
            "buffer" : 0,
            "byteLength" : 5292,
            "byteOffset" : 5292
        },
        {
            "buffer" : 0,
            "byteLength" : 3528,
            "byteOffset" : 10584
        },
        {
            "buffer" : 0,
            "byteLength" : 1308,
            "byteOffset" : 14112
        },
        {
            "buffer" : 0,
            "byteLength" : 3420,
            "byteOffset" : 15420
        },
        {
            "buffer" : 0,
            "byteLength" : 3420,
            "byteOffset" : 18840
        },
        {
            "buffer" : 0,
            "byteLength" : 2280,
            "byteOffset" : 22260
        },
        {
            "buffer" : 0,
            "byteLength" : 744,
            "byteOffset" : 24540
        },
        {
            "buffer" : 0,
            "byteLength" : 17136,
            "byteOffset" : 25284
        },
        {
            "buffer" : 0,
            "byteLength" : 17136,
            "byteOffset" : 42420
        },
        {
            "buffer" : 0,
            "byteLength" : 11424,
            "byteOffset" : 59556
        },
        {
            "buffer" : 0,
            "byteLength" : 3912,
            "byteOffset" : 70980
        },
        {
            "buffer" : 0,
            "byteLength" : 23136,
            "byteOffset" : 74892
        },
        {
            "buffer" : 0,
            "byteLength" : 23136,
            "byteOffset" : 98028
        },
        {
            "buffer" : 0,
            "byteLength" : 15424,
            "byteOffset" : 121164
        },
        {
            "buffer" : 0,
            "byteLength" : 5244,
            "byteOffset" : 136588
        },
        {
            "buffer" : 0,
            "byteLength" : 20904,
            "byteOffset" : 141832
        },
        {
            "buffer" : 0,
            "byteLength" : 20904,
            "byteOffset" : 162736
        },
        {
            "buffer" : 0,
            "byteLength" : 13936,
            "byteOffset" : 183640
        },
        {
            "buffer" : 0,
            "byteLength" : 3492,
            "byteOffset" : 197576
        },
        {
            "buffer" : 0,
            "byteLength" : 240,
            "byteOffset" : 201068
        },
        {
            "buffer" : 0,
            "byteLength" : 240,
            "byteOffset" : 201308
        },
        {
            "buffer" : 0,
            "byteLength" : 160,
            "byteOffset" : 201548
        },
        {
            "buffer" : 0,
            "byteLength" : 48,
            "byteOffset" : 201708
        },
        {
            "buffer" : 0,
            "byteLength" : 1008,
            "byteOffset" : 201756
        },
        {
            "buffer" : 0,
            "byteLength" : 1008,
            "byteOffset" : 202764
        },
        {
            "buffer" : 0,
            "byteLength" : 672,
            "byteOffset" : 203772
        },
        {
            "buffer" : 0,
            "byteLength" : 180,
            "byteOffset" : 204444
        },
        {
            "buffer" : 0,
            "byteLength" : 1056,
            "byteOffset" : 204624
        },
        {
            "buffer" : 0,
            "byteLength" : 1056,
            "byteOffset" : 205680
        },
        {
            "buffer" : 0,
            "byteLength" : 704,
            "byteOffset" : 206736
        },
        {
            "buffer" : 0,
            "byteLength" : 240,
            "byteOffset" : 207440
        }
    ],
    "buffers" : [
        {
            "byteLength" : 207680,
            "uri" : "data:application/octet-stream;base64,"
        }
    ]
}
