{
    "asset" : {
        "generator" : "Khronos glTF Blender I/O v1.8.19",
        "version" : "2.0"
    },
    "scene" : 0,
    "scenes" : [
        {
            "name" : "Scene",
            "nodes" : [
                0
            ]
        }
    ],
    "nodes" : [
        {
            "mesh" : 0,
            "name" : "cube_tree",
            "rotation" : [
                0.674787700176239,
                -0.6932613849639893,
                -0.22180357575416565,
                0.12187455594539642
            ],
            "scale" : [
                0.04155810549855232,
                0.04155810922384262,
                0.04155810922384262
            ],
            "translation" : [
                -0.044308703392744064,
                -0.019286930561065674,
                -0.18653249740600586
            ]
        }
    ],
    "materials" : [
        {
            "doubleSided" : true,
            "name" : "green.001",
            "pbrMetallicRoughness" : {
                "baseColorFactor" : [
                    0.001957269385457039,
                    0.22446492314338684,
                    0.003943285439163446,
                    1
                ],
                "metallicFactor" : 0
            }
        },
        {
            "doubleSided" : true,
            "name" : "green",
            "pbrMetallicRoughness" : {
                "baseColorFactor" : [
                    0.04997187852859497,
                    0.29321685433387756,
                    0.031239325180649757,
                    1
                ],
                "metallicFactor" : 0
            }
        },
        {
            "doubleSided" : true,
            "name" : "brown",
            "pbrMetallicRoughness" : {
                "baseColorFactor" : [
                    0.2932148575782776,
                    0.06352684646844864,
                    0.005345824174582958,
                    1
                ],
                "metallicFactor" : 0
            }
        }
    ],
    "meshes" : [
        {
            "name" : "Cube.002",
            "primitives" : [
                {
                    "attributes" : {
                        "POSITION" : 0,
                        "NORMAL" : 1,
                        "TEXCOORD_0" : 2
                    },
                    "indices" : 3,
                    "material" : 0
                },
                {
                    "attributes" : {
                        "POSITION" : 4,
                        "NORMAL" : 5,
                        "TEXCOORD_0" : 6
                    },
                    "indices" : 7,
                    "material" : 1
                },
                {
                    "attributes" : {
                        "POSITION" : 8,
                        "NORMAL" : 9,
                        "TEXCOORD_0" : 10
                    },
                    "indices" : 11,
                    "material" : 2
                }
            ]
        }
    ],
    "accessors" : [
        {
            "bufferView" : 0,
            "componentType" : 5126,
            "count" : 1410,
            "max" : [
                28.573015213012695,
                21.42020034790039,
                25.290111541748047
            ],
            "min" : [
                -26.270830154418945,
                -28.051979064941406,
                -34.64020919799805
            ],
            "type" : "VEC3"
        },
        {
            "bufferView" : 1,
            "componentType" : 5126,
            "count" : 1410,
            "type" : "VEC3"
        },
        {
            "bufferView" : 2,
            "componentType" : 5126,
            "count" : 1410,
            "type" : "VEC2"
        },
        {
            "bufferView" : 3,
            "componentType" : 5123,
            "count" : 4680,
            "type" : "SCALAR"
        },
        {
            "bufferView" : 4,
            "componentType" : 5126,
            "count" : 4836,
            "max" : [
                53.61491775512695,
                26.25960922241211,
                27.424922943115234
            ],
            "min" : [
                -31.954832077026367,
                -29.443458557128906,
                -32.542152404785156
            ],
            "type" : "VEC3"
        },
        {
            "bufferView" : 5,
            "componentType" : 5126,
            "count" : 4836,
            "type" : "VEC3"
        },
        {
            "bufferView" : 6,
            "componentType" : 5126,
            "count" : 4836,
            "type" : "VEC2"
        },
        {
            "bufferView" : 7,
            "componentType" : 5123,
            "count" : 10614,
            "type" : "SCALAR"
        },
        {
            "bufferView" : 8,
            "componentType" : 5126,
            "count" : 149,
            "max" : [
                49.7193717956543,
                9.876961708068848,
                -0.12024402618408203
            ],
            "min" : [
                20.10562515258789,
                -8.651114463806152,
                -20.912227630615234
            ],
            "type" : "VEC3"
        },
        {
            "bufferView" : 9,
            "componentType" : 5126,
            "count" : 149,
            "type" : "VEC3"
        },
        {
            "bufferView" : 10,
            "componentType" : 5126,
            "count" : 149,
            "type" : "VEC2"
        },
        {
            "bufferView" : 11,
            "componentType" : 5123,
            "count" : 468,
            "type" : "SCALAR"
        }
    ],
    "bufferViews" : [
        {
            "buffer" : 0,
            "byteLength" : 16920,
            "byteOffset" : 0
        },
        {
            "buffer" : 0,
            "byteLength" : 16920,
            "byteOffset" : 16920
        },
        {
            "buffer" : 0,
            "byteLength" : 11280,
            "byteOffset" : 33840
        },
        {
            "buffer" : 0,
            "byteLength" : 9360,
            "byteOffset" : 45120
        },
        {
            "buffer" : 0,
            "byteLength" : 58032,
            "byteOffset" : 54480
        },
        {
            "buffer" : 0,
            "byteLength" : 58032,
            "byteOffset" : 112512
        },
        {
            "buffer" : 0,
            "byteLength" : 38688,
            "byteOffset" : 170544
        },
        {
            "buffer" : 0,
            "byteLength" : 21228,
            "byteOffset" : 209232
        },
        {
            "buffer" : 0,
            "byteLength" : 1788,
            "byteOffset" : 230460
        },
        {
            "buffer" : 0,
            "byteLength" : 1788,
            "byteOffset" : 232248
        },
        {
            "buffer" : 0,
            "byteLength" : 1192,
            "byteOffset" : 234036
        },
        {
            "buffer" : 0,
            "byteLength" : 936,
            "byteOffset" : 235228
        }
    ],
    "buffers" : [
        {
            "byteLength" : 236164,
            "uri" : "data:application/octet-stream;base64,"
        }
    ]
}
